<?xml version="1.0" encoding="utf-8"?>
<!-- Generator: Adobe Illustrator 25.2.0, SVG Export Plug-In . SVG Version: 6.00 Build 0)  -->
<svg version="1.1" id="ms-logo-type" xmlns="http://www.w3.org/2000/svg" xmlns:xlink="http://www.w3.org/1999/xlink" x="0px"
	 y="0px" viewBox="0 0 697.3 101.8" enable-background="new 0 0 697.3 101.8" xml:space="preserve">
<g>
	<path d="M311.1,2c-27,0-49,22-49,49c0,27,22,49,49,49c27,0,49-22,49-49C360.1,24,338.1,2,311.1,2z M311.1,84.4
		c-18.4,0-33.4-15-33.4-33.4c0-18.4,15-33.4,33.4-33.4c18.4,0,33.4,15,33.4,33.4C344.5,69.5,329.5,84.4,311.1,84.4z"/>
	<path d="M538.8,2c-27,0-49,22-49,49c0,27,22,49,49,49c27,0,49-22,49-49C587.8,24,565.8,2,538.8,2z M538.8,84.4
		c-18.4,0-33.4-15-33.4-33.4c0-18.4,15-33.4,33.4-33.4c18.4,0,33.4,15,33.4,33.4C572.2,69.5,557.2,84.4,538.8,84.4z"/>
	<rect x="123.6" y="4.3" width="15.6" height="93.1"/>
	<path d="M55.2,39.1C36,39.1,20.4,23.5,20.4,4.3H4.8c0,0.1,0,93.1,0,93.1h15.6V40.7c9,8.6,21.3,13.9,34.7,13.9
		c13.5,0,25.7-5.3,34.7-13.9v56.7h15.6c0,0,0-93,0-93.1H89.9C89.9,23.5,74.3,39.1,55.2,39.1z"/>
	<rect x="599.4" y="4.3" width="15.6" height="93.1"/>
	<polygon points="647.7,81.9 647.7,4.3 632.1,4.3 632.1,97.5 694.4,97.5 694.4,81.9 	"/>
	<path d="M414.2,36c3.1-10.6,13-18.4,24.6-18.4c11.4,0,21.1,7.5,24.4,17.9h16.1C475.6,16.5,458.9,2,438.8,2
		c-18.9,0-34.9,12.8-39.7,30.2c-1,3.5-1.5,7.2-1.5,11c0,1.6,0.1,3.2,0.3,4.8l51.6,12.9l15.1,3.8c-3,11.4-13.4,19.8-25.8,19.8
		c-12.2,0-22.5-8.2-25.6-19.4h-16c3.5,19.8,20.8,35,41.6,35c19.6,0,36.2-13.4,40.9-31.6c0.9-3.4,1.4-7,1.4-10.7
		c0-1.7-0.1-3.5-0.3-5.2L414.2,36z"/>
	<polygon points="234.4,74 173,4.3 157.4,4.3 157.4,97.5 173,97.5 173,28 234.4,97.5 250,97.5 250,4.3 234.4,4.3 	"/>
</g>
</svg>
