<?xml version="1.0" encoding="utf-8"?>
<!-- Generator: Adobe Illustrator 25.2.0, SVG Export Plug-In . SVG Version: 6.00 Build 0)  -->
<svg version="1.1" id="ms-logo-type" xmlns="http://www.w3.org/2000/svg" xmlns:xlink="http://www.w3.org/1999/xlink" x="0px"
	 y="0px" viewBox="0 0 768.9 176.9" enable-background="new 0 0 768.9 176.9" xml:space="preserve">
<g>
	
		<image overflow="visible" opacity="0.15" width="2999" height="534" xlink:href="AC37422DE70EF20D.png"  transform="matrix(0.24 0 0 0.24 31.5126 31.4342)">
	</image>
	<g>
		<g>
			<path fill="#CCCCCD" d="M345.9,39.5c-27,0-49,22-49,49c0,27,22,49,49,49c27,0,49-22,49-49C394.9,61.4,372.9,39.5,345.9,39.5z
				 M345.9,121.9c-18.4,0-33.4-15-33.4-33.4c0-18.4,15-33.4,33.4-33.4c18.4,0,33.4,15,33.4,33.4
				C379.3,106.9,364.3,121.9,345.9,121.9z"/>
			<path fill="#CCCCCD" d="M573.6,39.5c-27,0-49,22-49,49c0,27,22,49,49,49c27,0,49-22,49-49C622.6,61.4,600.6,39.5,573.6,39.5z
				 M573.6,121.9c-18.4,0-33.4-15-33.4-33.4c0-18.4,15-33.4,33.4-33.4c18.4,0,33.4,15,33.4,33.4C607,106.9,592,121.9,573.6,121.9z"
				/>
			<rect x="158.5" y="41.8" fill="#CCCCCD" width="15.6" height="93.1"/>
			<path fill="#CCCCCD" d="M90,76.5c-19.2,0-34.7-15.6-34.7-34.7H39.7c0,0.1,0,93.1,0,93.1h15.6V78.2c9,8.6,21.3,13.9,34.7,13.9
				c13.5,0,25.7-5.3,34.7-13.9v56.7h15.6c0,0,0-93,0-93.1h-15.6C124.7,60.9,109.1,76.5,90,76.5z"/>
			<rect x="634.3" y="41.8" fill="#CCCCCD" width="15.6" height="93.1"/>
			<polygon fill="#CCCCCD" points="682.5,119.3 682.5,41.8 666.9,41.8 666.9,134.9 729.3,134.9 729.3,119.3 			"/>
			<path fill="#CCCCCD" d="M449,73.4c3.1-10.6,13-18.4,24.6-18.4c11.4,0,21.1,7.5,24.4,17.9h16.1c-3.6-19-20.4-33.5-40.5-33.5
				c-18.9,0-34.9,12.8-39.7,30.2c-1,3.5-1.5,7.2-1.5,11c0,1.6,0.1,3.2,0.3,4.8l51.6,12.9l15.1,3.8c-3,11.4-13.4,19.8-25.8,19.8
				c-12.2,0-22.5-8.2-25.6-19.4h-16c3.5,19.8,20.8,35,41.6,35c19.6,0,36.2-13.4,40.9-31.6c0.9-3.4,1.4-7,1.4-10.7
				c0-1.7-0.1-3.5-0.3-5.2L449,73.4z"/>
			<polygon fill="#CCCCCD" points="269.3,111.4 207.8,41.8 192.2,41.8 192.2,134.9 207.8,134.9 207.8,65.4 269.3,134.9 284.9,134.9 
				284.9,41.8 269.3,41.8 			"/>
		</g>
	</g>
</g>
</svg>
