<?xml version="1.0" encoding="utf-8"?>
<!-- Generator: Adobe Illustrator 25.4.1, SVG Export Plug-In . SVG Version: 6.00 Build 0)  -->
<svg version="1.1" id="ms-sound" xmlns="http://www.w3.org/2000/svg" xmlns:xlink="http://www.w3.org/1999/xlink" x="0px" y="0px"
	 viewBox="0 0 142 129" style="enable-background:new 0 0 142 129;" xml:space="preserve">
<style type="text/css">
	.st0{fill:none;stroke:#000000;stroke-width:15.5906;stroke-miterlimit:10;}
</style>
<g>
	<rect x="11.7" y="39.7" width="15.6" height="39.1"/>
	<rect x="23.4" y="28" transform="matrix(-4.348599e-07 -1 1 -4.348599e-07 -16.2857 78.7455)" width="15.6" height="39.1"/>
	<rect x="11.7" y="39.7" width="15.6" height="49.5"/>
	<rect x="71.6" y="18.6" width="15.6" height="91.7"/>
	<rect x="23.4" y="61.9" transform="matrix(-4.348599e-07 1 -1 -4.348599e-07 112.6869 50.2271)" width="15.6" height="39.1"/>
	<rect x="53.5" y="72.5" transform="matrix(-0.6283 0.778 -0.778 -0.6283 171.4123 102.1168)" width="15.6" height="39.1"/>
	<rect x="53.5" y="17.4" transform="matrix(-0.6283 -0.778 0.778 -0.6283 71.0744 107.8878)" width="15.6" height="39.1"/>
</g>
<line class="st0" x1="96.8" y1="41.3" x2="128.8" y2="22"/>
<line class="st0" x1="99" y1="64.5" x2="133.6" y2="64.5"/>
<line class="st0" x1="96.8" y1="87.6" x2="128.8" y2="107"/>
</svg>
